
<svg xmlns="http://www.w3.org/2000/svg" width="229.017" height="134.287" viewBox="0 0 229.017 134.287">
    <defs>
        <style>
            .cls-3{fill:#28b463}.cls-4{fill:#e0e0e0}.cls-5{fill:#263238}.cls-7{fill:#ebebeb}.cls-8{fill:#fd7750}.cls-9{fill:#febd89}.cls-10{fill:#dd5b36}.cls-11{fill:#222}.cls-16,.cls-41{fill:#68aef1}.cls-20{opacity:.4}.cls-20,.cls-47{mix-blend-mode:multiply}.cls-20,.cls-24,.cls-41,.cls-47{isolation:isolate}.cls-24,.cls-41{mix-blend-mode:screen}.cls-23,.cls-24{fill:#201e1e}.cls-25{fill:#363635}.cls-26{fill:#d5d3cb}.cls-27{fill:#4c4c49}.cls-34{fill:#5a0e07}.cls-38{fill:#06325c}.cls-39{fill:#14528d}.cls-41{opacity:.2}.cls-44{fill:#dc4e14}.cls-47{fill:#dca33e}.cls-48{fill:#f2af41}
        </style>
    </defs>
    <g id="ic_illustration" transform="translate(19.069 8.142)">
        <path id="Path_3552" d="M3932.807 16435.484s30.089-4.412 31.67-41.291c-.567-24.387-14.643-43.748-54.541-43.748-39.9.123-64.773-19.232-81.949-33.936-4.891-5.148-56.48-31.859-83.646 18.619-27.139 50.486 16.58 100.355 16.58 100.355z" opacity="0.05" transform="translate(-3754.528 -16312.995)"/>
        <path id="Path_3551" fill="#919191" d="M3755.8 16485.668h218.863s-132.877 13.352-218.863 0z" transform="translate(-3764.929 -16365.456)"/>
        <g id="Background_Complete" transform="translate(.871 12.557)">
            <g id="Group_4498" transform="translate(93.467 20.511)">
                <g id="Group_4484" transform="translate(1.948)">
                    <g id="Group_4483">
                        <path id="Path_3414" d="M670.052 178.263a4.274 4.274 0 0 0-1.1 3.174 7.6 7.6 0 0 0 1.023 3.268 13.386 13.386 0 0 0 5.012 4.663c1.107-2.214.421-5-.008-6.394-.689-2.2-3.27-5.763-4.928-4.711" class="cls-3" transform="translate(-668.948 -178.073)"/>
                    </g>
                </g>
                <g id="Group_4486" transform="translate(0 12.492)">
                    <g id="Group_4485">
                        <path id="Path_3415" d="M680.158 220.608a3.647 3.647 0 0 0-2.416-2.768 4.841 4.841 0 0 0-3.737.325 2.043 2.043 0 0 0-1.187 1.252 1.567 1.567 0 0 0 .578 1.476 3.175 3.175 0 0 0 1.528.624c1.876.324 3.756.291 5.234-.909" class="cls-3" transform="translate(-672.789 -217.602)"/>
                    </g>
                </g>
                <g id="Group_4489" transform="translate(3.133 14.515)">
                    <g id="Group_4488">
                        <g id="Group_4487">
                            <path id="Path_3416" d="M666.662 230.354a3.016 3.016 0 0 0-.234-.394c-.176-.274-.406-.626-.678-1.051a12.843 12.843 0 0 0-2.669-3.149 7.872 7.872 0 0 0-3.741-1.7 5.354 5.354 0 0 0-1.26-.033 3 3 0 0 0-.333.048.51.51 0 0 0-.122.029 8.449 8.449 0 0 1 1.7.069 8.119 8.119 0 0 1 3.66 1.712 13.892 13.892 0 0 1 2.676 3.088c.295.435.54.785.716 1.024a2.171 2.171 0 0 0 .285.357z" class="cls-4" transform="translate(-657.625 -224.004)"/>
                        </g>
                    </g>
                </g>
                <g id="Group_4492" transform="translate(4.776 3.075)">
                    <g id="Group_4491">
                        <g id="Group_4490">
                            <path id="Path_3417" d="M657.176 187.8a.892.892 0 0 0 .053.191c.046.141.111.32.188.541.161.469.406 1.144.716 1.975.624 1.663 1.512 3.947 2.55 6.448s2.033 4.743 2.776 6.356c.375.807.681 1.456.9 1.9.1.211.188.381.253.513a.983.983 0 0 0 .1.174 1.254 1.254 0 0 0-.065-.188c-.057-.136-.134-.31-.226-.525-.211-.473-.5-1.125-.846-1.923-.712-1.624-1.692-3.872-2.73-6.371s-1.949-4.776-2.592-6.427c-.322-.811-.586-1.474-.773-1.955-.084-.218-.157-.394-.215-.53a.9.9 0 0 0-.089-.179z" class="cls-4" transform="translate(-657.176 -187.803)"/>
                        </g>
                    </g>
                </g>
                <g id="Group_4494" transform="translate(10.651 7.111)">
                    <g id="Group_4493">
                        <path id="Path_3418" d="M647.374 208.981a8.551 8.551 0 0 1 1.938-7.579c.463-.511 1.137-1 1.788-.768s.861 1.048.877 1.74a7.313 7.313 0 0 1-4.5 6.758" class="cls-3" transform="translate(-647.155 -200.575)"/>
                    </g>
                </g>
                <g id="Group_4497" transform="translate(10.828 9.996)">
                    <g id="Group_4496">
                        <g id="Group_4495">
                            <path id="Path_3419" d="M656.443 209.7a2.167 2.167 0 0 0-.3.31 4.272 4.272 0 0 0-.322.392c-.115.159-.264.331-.394.546s-.28.436-.414.7a8.456 8.456 0 0 0-.4.844 8.8 8.8 0 0 0-.632 4.21 7.955 7.955 0 0 0 .142.925 6.506 6.506 0 0 0 .2.791 5.8 5.8 0 0 0 .226.632 2.865 2.865 0 0 0 .211.461 2.724 2.724 0 0 0 .2.381c.034-.017-.257-.561-.528-1.507-.061-.239-.138-.5-.184-.783a7.911 7.911 0 0 1-.122-.913 9.38 9.38 0 0 1 .065-2.106 10.167 10.167 0 0 1 .551-2.035c.126-.3.245-.584.383-.839a7.742 7.742 0 0 1 .4-.7c.524-.832.945-1.28.918-1.309z" class="cls-4" transform="translate(-653.945 -209.704)"/>
                        </g>
                    </g>
                </g>
            </g>
            <g id="Group_4552">
                <g id="Group_4526">
                    <g id="Group_4525">
                        <g id="Group_4524">
                            <g id="Group_4523">
                                <path id="Path_3428" d="M348.724 116.558c8.1-4.074 11.144-13.369 12.092-21.984.157-1.438.532-2.923.033-4.278a2.942 2.942 0 0 0-3.331-2.024c-1.133.347-1.775 1.516-2.52 2.452a8.45 8.45 0 0 1-3.817 2.72 3.223 3.223 0 0 1-2.977-.158c-1.137-.86-1.036-2.586-.819-4.008l1.2-7.95a13.365 13.365 0 0 0 .182-4.289 4.457 4.457 0 0 0-2.344-3.386 2.7 2.7 0 0 0-3.572 1.315 12.893 12.893 0 0 0-.3 1.766 1.513 1.513 0 0 1-1.08 1.283c-.592.085-1.1-.4-1.47-.879a19.174 19.174 0 0 1-2.653-5.62 26.364 26.364 0 0 0-2.4-5.751 7.774 7.774 0 0 0-4.79-3.679 4.657 4.657 0 0 0-5.181 2.461c-.806 1.932.071 4.137 1.108 5.945a32.145 32.145 0 0 0 5.7 7.261 2.652 2.652 0 0 1 .936 1.35c.17.993-.864 1.805-1.846 1.982a16.621 16.621 0 0 1-3.377-.106 3.232 3.232 0 0 0-2.971 1.274c-.794 1.37.2 3.071 1.254 4.243a27.5 27.5 0 0 0 7.382 5.813 9.275 9.275 0 0 1 2.784 1.887 2.66 2.66 0 0 1 .406 3.139 2.708 2.708 0 0 1-3.077.7 19.078 19.078 0 0 1-2.95-1.644c-1.851-1.021-4.4-1.251-5.893.258a4.548 4.548 0 0 0-1.055 3.913 10.469 10.469 0 0 0 1.649 3.829 27.647 27.647 0 0 0 10.5 9.9c4.309 2.229 8.452 3.262 13.2 2.265" class="cls-3" transform="translate(-323.306 -61.995)"/>
                            </g>
                        </g>
                    </g>
                </g>
                <g id="Group_4531" transform="translate(4.004 .9)">
                    <g id="Group_4530">
                        <g id="Group_4529">
                            <g id="Group_4528">
                                <g id="Group_4527">
                                    <path id="Path_3429" d="M386.986 112.812a128.507 128.507 0 0 0-3.077-14.461q-.505-1.9-1-3.75c-.331-1.229-.659-2.449-1.055-3.622a64.038 64.038 0 0 0-2.655-6.61c-.948-2.062-1.922-3.984-2.845-5.774s-1.824-3.44-2.705-4.911a50.93 50.93 0 0 0-4.67-6.622c-.609-.736-1.1-1.291-1.44-1.663l-.389-.421a1.206 1.206 0 0 0-.138-.137.885.885 0 0 0 .117.155c.094.109.214.254.368.438.325.383.8.949 1.4 1.694a53.921 53.921 0 0 1 4.587 6.652c.869 1.472 1.756 3.125 2.671 4.916s1.88 3.716 2.82 5.775a64.613 64.613 0 0 1 2.629 6.59c.394 1.167.72 2.376 1.049 3.609l1 3.748a131.848 131.848 0 0 1 3.094 14.428" class="cls-4" transform="translate(-367.012 -64.842)"/>
                                </g>
                            </g>
                        </g>
                    </g>
                </g>
                <g id="Group_4536" transform="translate(18.77 11.659)">
                    <g id="Group_4535">
                        <g id="Group_4534">
                            <g id="Group_4533">
                                <g id="Group_4532">
                                    <path id="Path_3430" d="M369.748 114.243a3 3 0 0 0 .228-.587c.132-.382.3-.941.505-1.636.406-1.388.9-3.325 1.44-5.46s1.061-4.061 1.486-5.438c.211-.69.387-1.246.515-1.629a2.9 2.9 0 0 0 .168-.606 2.819 2.819 0 0 0-.266.57c-.155.373-.362.922-.6 1.606-.473 1.368-1.024 3.291-1.564 5.431l-1.363 5.476-.425 1.657a2.86 2.86 0 0 0-.124.616z" class="cls-4" transform="translate(-369.744 -98.887)"/>
                                </g>
                            </g>
                        </g>
                    </g>
                </g>
                <g id="Group_4541" transform="translate(.97 20.946)">
                    <g id="Group_4540">
                        <g id="Group_4539">
                            <g id="Group_4538">
                                <g id="Group_4537">
                                    <path id="Path_3431" d="M383.489 128.28a3.92 3.92 0 0 0 .716.192c.465.11 1.137.266 1.96.483 1.648.424 3.907 1.087 6.368 1.929s4.65 1.708 6.218 2.376c.787.329 1.417.613 1.852.806a4.034 4.034 0 0 0 .689.279 3.913 3.913 0 0 0-.643-.373c-.423-.221-1.043-.532-1.821-.884-1.555-.714-3.743-1.607-6.211-2.456a65.162 65.162 0 0 0-6.41-1.86c-.829-.194-1.509-.323-1.98-.4a3.973 3.973 0 0 0-.738-.092z" class="cls-4" transform="translate(-383.489 -128.275)"/>
                                </g>
                            </g>
                        </g>
                    </g>
                </g>
                <g id="Group_4546" transform="translate(23.803 26.463)">
                    <g id="Group_4545">
                        <g id="Group_4544">
                            <g id="Group_4543">
                                <g id="Group_4542">
                                    <path id="Path_3432" d="M327.728 167.77a.97.97 0 0 0 .157-.206c.111-.167.247-.369.41-.616.352-.537.842-1.328 1.434-2.312 1.187-1.969 2.738-4.739 4.409-7.821s3.2-5.863 4.34-7.852c.559-.967 1.018-1.763 1.361-2.354l.366-.642a.9.9 0 0 0 .113-.236 1.073 1.073 0 0 0-.157.207l-.408.616c-.354.537-.842 1.329-1.436 2.312-1.185 1.968-2.738 4.74-4.411 7.823s-3.2 5.861-4.338 7.851c-.561.967-1.02 1.762-1.359 2.354-.147.258-.268.469-.369.642a.954.954 0 0 0-.112.234z" class="cls-4" transform="translate(-327.727 -145.731)"/>
                                </g>
                            </g>
                        </g>
                    </g>
                </g>
                <g id="Group_4551" transform="translate(.623 37.148)">
                    <g id="Group_4550">
                        <g id="Group_4549">
                            <g id="Group_4548">
                                <g id="Group_4547">
                                    <path id="Path_3433" d="M367.57 179.543a1.046 1.046 0 0 0 .228.135l.672.339c.622.3 1.461.718 2.483 1.22 2.093 1.031 4.972 2.487 8.15 4.1s6.071 3.047 8.188 4.036c1.059.494 1.92.884 2.519 1.142.276.119.505.214.693.294a1.075 1.075 0 0 0 .249.086 1.021 1.021 0 0 0-.228-.136c-.178-.091-.4-.2-.672-.337-.62-.306-1.459-.72-2.479-1.22-2.1-1.031-4.976-2.488-8.154-4.1s-6.071-3.045-8.186-4.033c-1.061-.495-1.918-.884-2.519-1.143-.278-.118-.507-.215-.7-.293a.894.894 0 0 0-.244-.09z" class="cls-4" transform="translate(-367.569 -179.542)"/>
                                </g>
                            </g>
                        </g>
                    </g>
                </g>
            </g>
        </g>
        <g id="Group_1" transform="translate(2.724 -1.922)">
            <g id="Device" transform="translate(107.164)">
                <g id="Group_4587">
                    <g id="Group_4563">
                        <g id="Group_4562">
                            <g id="Group_4561">
                                <g id="Group_4560">
                                    <g id="Group_4557">
                                        <g id="Group_4556">
                                            <path id="Path_3436" d="M171.977 175.071l41.646-.193a9.072 9.072 0 0 0 9.03-9.11l-.441-104.41a9.072 9.072 0 0 0-9.113-9.034l-41.648.192a9.072 9.072 0 0 0-9.029 9.111l.441 104.41a9.07 9.07 0 0 0 9.114 9.034z" class="cls-5" transform="translate(-162.422 -52.325)"/>
                                        </g>
                                    </g>
                                    <g id="Group_4559" transform="translate(2.765 3.527)">
                                        <g id="Group_4558">
                                            <path id="Path_3437" fill="#fafafa" d="M177.571 63.991l8.075-.037c1.082 0 1.965-.549 1.968.583l.008 1.463a2.006 2.006 0 0 0 1.97 2.04l15.738-.073a2.009 2.009 0 0 0 1.953-2.059l-.008-1.465c0-1.132.87-.6 1.953-.6l2.84-.013 7.068-.033a6.352 6.352 0 0 1 6.381 6.327l.431 101.912a6.353 6.353 0 0 1-6.323 6.381l-41.564.192a6.355 6.355 0 0 1-6.384-6.326l-.43-101.913a6.354 6.354 0 0 1 6.324-6.379z" transform="translate(-171.248 -63.722)"/>
                                        </g>
                                    </g>
                                </g>
                            </g>
                        </g>
                    </g>
                    <g id="Group_4564" transform="translate(44.196 22.16)">
                        <path id="Path_3438" d="M185.35 123.051h-6.812l-6.08 6.08 6.321 6.321 6.5-6.5z" class="cls-7" transform="translate(-172.458 -123.051)"/>
                    </g>
                    <g id="Group_4565" transform="translate(38.543 22.16)">
                        <path id="Path_3439" d="M211.4 126.465l3.415-3.414h-7.68z" class="cls-7" transform="translate(-207.135 -123.051)"/>
                    </g>
                    <g id="Group_4566" transform="translate(12.579 22.38)">
                        <path id="Path_3440" d="M254.805 129.734l-5.981-5.98h-20.9s-3.2 14.286 9.386 23.459z" class="cls-7" transform="translate(-227.561 -123.754)"/>
                    </g>
                    <g id="Group_4567" transform="translate(24.676 30.267)">
                        <path id="Path_3441" d="M216.672 148.924l6.4 6.4-17.706 17.707-6.4-6.614z" class="cls-7" transform="translate(-198.965 -148.924)"/>
                    </g>
                    <g id="Group_4568" transform="translate(53.156 32.201)">
                        <path id="Path_3442" d="M176.222 163.19l-4.009-4.159 3.931-3.933z" class="cls-7" transform="translate(-172.213 -155.098)"/>
                    </g>
                    <g id="Group_4569" transform="translate(33.423 38.587)">
                        <path id="Path_3443" d="M190.34 175.478l6.159 6.16v8.56L183.78 203.21l-10.773-10.025z" class="cls-7" transform="translate(-173.007 -175.478)"/>
                    </g>
                    <g id="Group_4570" transform="translate(2.817 22.38)">
                        <path id="Path_3444" d="M308.117 149.008s-13.2-9.675-8.929-25.254h-8.207l.1 43.976z" class="cls-7" transform="translate(-290.981 -123.754)"/>
                    </g>
                    <g id="Group_4571" transform="translate(3.257 50.174)">
                        <path id="Path_3445" d="M281.884 212.459l6.383 6.662-19.567 19.566-5.983-6.343z" class="cls-7" transform="translate(-262.717 -212.459)"/>
                    </g>
                    <g id="Group_4572" transform="translate(11.434 58.659)">
                        <path id="Path_3446" d="M242.241 239.542l10.03 9.957-20.057 19.919-10.014-9.679z" class="cls-7" transform="translate(-222.205 -239.542)"/>
                    </g>
                    <g id="Group_4573" transform="translate(6.812 92.656)">
                        <path id="Path_3447" d="M267.35 363.941l-15.331-15.895-14.585 14.868z" class="cls-7" transform="translate(-237.434 -348.046)"/>
                    </g>
                    <g id="Group_4574" transform="translate(3.038 74.787)">
                        <path id="Path_3448" d="M309.968 306.835L294 291.016c0 .7.137 32.811.137 32.811z" class="cls-7" transform="translate(-294.003 -291.016)"/>
                    </g>
                    <g id="Group_4575" transform="translate(23.619 81.719)">
                        <path id="Path_3449" d="M204.883 313.138l-9.058 9.056 17.881 18.457 8.265-9.91z" class="cls-7" transform="translate(-195.826 -313.138)"/>
                    </g>
                    <g id="Group_4576" transform="translate(34.39 56.426)">
                        <path id="Path_3450" d="M195.02 276.6c-.854-.085-22.759-20.6-22.759-20.6l22.759-23.584z" class="cls-7" transform="translate(-172.261 -232.415)"/>
                    </g>
                    <g id="Group_4577" transform="translate(44.89 100.607)">
                        <path id="Path_3451" d="M183.825 378.1l-5.274-4.673-7.3 8.625h12.577v-3.3" class="cls-7" transform="translate(-171.248 -373.422)"/>
                    </g>
                    <g id="Group_4584" transform="translate(7.334 13.11)">
                        <g id="Group_4579">
                            <g id="Group_4578">
                                <path id="Path_3452" d="M189.6 97.007a13.085 13.085 0 0 1-1.564-1.361v-.12h.006l.009-.009.019-.018.04-.037.077-.072.151-.14.287-.263.492-.438a2.277 2.277 0 0 1 .482-.374 2.3 2.3 0 0 1-.4.458q-.225.221-.468.464l-.281.27-.15.142-.076.072-.039.037-.019.019-.009.009a1.12 1.12 0 1 1 0-.119 13.313 13.313 0 0 1 1.443 1.48z" class="cls-5" transform="translate(-188.035 -94.166)"/>
                            </g>
                        </g>
                        <g id="Group_4583" transform="translate(44.193 .111)">
                            <g id="Group_4580">
                                <path id="Path_3453" d="M329.764 94.86a.341.341 0 1 1-.34-.34.339.339 0 0 1 .34.34z" class="cls-5" transform="translate(-329.083 -94.52)"/>
                            </g>
                            <g id="Group_4581" transform="translate(0 1.169)">
                                <path id="Path_3454" d="M329.665 98.351a.341.341 0 1 1-.482 0 .34.34 0 0 1 .482 0z" class="cls-5" transform="translate(-329.083 -98.251)"/>
                            </g>
                            <g id="Group_4582" transform="translate(0 2.338)">
                                <path id="Path_3455" d="M329.764 102.322a.341.341 0 1 1-.34-.34.34.34 0 0 1 .34.34z" class="cls-5" transform="translate(-329.083 -101.982)"/>
                            </g>
                        </g>
                    </g>
                    <g id="Group_4585" transform="translate(22.019 14.948)">
                        <path id="Rectangle_2520" d="M0 0H14.656V1.221H0z" class="cls-5"/>
                    </g>
                    <g id="Group_4586" transform="translate(23.61 29.417)">
                        <path id="Path_3456" d="M227.562 153.679c0-5.709 6-9.326 12.116-6.466a6.947 6.947 0 0 1 3.217 3.086c1.539 2.98.86 6.384-.535 9.211l-4.76 12.064a2.052 2.052 0 0 1-3.823-.015l-4.667-12.128a14.919 14.919 0 0 1-1.548-5.752zm5.745 4.968c4.111 2.391 8.28-2.029 6.025-6.389a3.423 3.423 0 0 0-1.306-1.385c-4.111-2.392-8.28 2.027-6.025 6.389a3.429 3.429 0 0 0 1.306 1.386z" class="cls-8" transform="translate(-227.561 -146.213)"/>
                    </g>
                </g>
            </g>
            <g id="man" transform="translate(158.529 49.792)">
                <path id="Path_3553" d="M1522.131 1071.194s-.316-1.525-1.108-1.874-1.267-1.748-1.583-1.367.095 2.923.7 3.241a3.274 3.274 0 0 1 .886.646z" class="cls-9" transform="translate(-1517.901 -1052.995)"/>
                <path id="Path_3554" d="M1548.7 1039.611s-5.045 8.832-6.875 10.458l-6.712-5.022a2.451 2.451 0 0 0-1.4 1.281s4.075 8.334 8.088 8.687 9.645-9.989 9.645-9.989z" class="cls-10" transform="translate(-1530.88 -1027.481)"/>
                <g id="Group_4918" transform="translate(12.28 32.54)">
                    <path id="Path_3555" d="M1808.763 1593.957s1.166 1.085.939 1.856-1.28 1.285-1.423 2.227-.711 1.456-1.223 1.456h-2.442s-.377-.663.534-.863 1.254-1.307 1.2-2.335a18.455 18.455 0 0 1 .085-2.4l1.935-.457z" class="cls-8" transform="translate(-1787.612 -1559.719)"/>
                    <path id="Path_3556" d="M1637.363 1622.689a.693.693 0 0 1-.173.047h-6.439a1.111 1.111 0 0 1 1.036-.818c1.02-.166 2.787-.76 3.181-2.07.012-.042.024-.085.034-.129.313-1.4 2.589.428 2.589.428s.007.056.016.151c.053.514.193 2.174-.244 2.391z" class="cls-8" transform="translate(-1630.751 -1582.95)"/>
                    <path id="Path_3557" d="M1644.166 1266.554s.346 4.329.752 9.532c.552 7.068 1.216 15.75 1.282 17.4.114 2.856.569 7.425.569 7.425a3.57 3.57 0 0 0 3.244.628 75.013 75.013 0 0 0 2.478-13.422l.025-.341c.512-7.025 1.308-21.817 1.308-21.817z" class="cls-11" transform="translate(-1642.859 -1264.241)"/>
                    <path id="Path_3558" d="M1644.166 1266.554s.346 4.329.752 9.532l7.573 12.026.025-.341c.512-7.025 1.308-21.817 1.308-21.817z" transform="translate(-1642.859 -1264.241)"/>
                    <path id="Path_3559" d="M1660.375 1251.253s6.231 15.677 10.327 23.044 5.377 9.423 5.377 9.423 2.347-.942 2.561-1.585c0 0-1.566-14.223-4.311-17.69-1.55-1.959-3.371-7.839-3.457-9.895s-.554-6.125-.554-6.125z" class="cls-11" transform="translate(-1657.49 -1248.426)"/>
                </g>
                <path id="Path_3560" fill="#edad7a" d="M1677.946 982.038a18.4 18.4 0 0 1-.285-2.615l3.161-2.557a6.372 6.372 0 0 0 2.127 5.207s-4.213 2.082-6.648 1.31a5.834 5.834 0 0 1 1.645-1.345z" transform="translate(-1659.585 -970.869)"/>
                <path id="Path_3561" fill="#ffbd89" d="M1675.337 940.792s4.022.671 4.4-1.85 1.151-4.131-1.4-4.666-3.2.352-3.526 1.162-.511 5.115.526 5.354z" transform="translate(-1658.007 -932.297)"/>
                <path id="Path_3562" d="M1640.657 1045.17a.392.392 0 0 0 .256.1 39.39 39.39 0 0 0 5.836.264 16.748 16.748 0 0 0 5.393-1.562c.24-.108.793-.4.78-.673-.007-.295-.037-.722-.074-1.261a67.765 67.765 0 0 1-.133-8.81c.039-.692.059-1.378.062-2.054.019-5.036-.976-9.466-2.976-10.966-.171-.123-1.219.391-2.183.868a3.975 3.975 0 0 1-2.621.319l-.841.746a8.44 8.44 0 0 0-2.634 4.222 47.767 47.767 0 0 0-.792 7.832c-.061 1.42-.11 2.851-.122 4.21v.048c-.012.135-.012.282-.012.416-.049 3.487.004 6.252.061 6.301z" class="cls-8" transform="translate(-1627.339 -1009.957)"/>
                <path id="Path_3563" d="M1730.483 1111.136a67.737 67.737 0 0 1-.134-8.81c.039-.692.06-1.378.062-2.054-.833-2.028-1.514-3.5-1.514-3.5h-2.1s-1.537 10.553 3.686 14.364z" class="cls-10" transform="translate(-1704.973 -1079.056)"/>
                <path id="Path_3564" fill="#6b7789" d="M1769.278 1277.32l-.559-3.94a2.156 2.156 0 0 0-2.43-1.83l-3.077.44-.119-.84a.711.711 0 0 0-.8-.6l-2.675.383a.7.7 0 0 0-.466.277.708.708 0 0 0-.135.527l.119.84-1.782.255a2.1 2.1 0 0 0-.208.04l-.978.14a2.153 2.153 0 0 0-1.817 2.43l.553 3.894a2.147 2.147 0 0 0 2.421 1.823l.731-.1a2.129 2.129 0 0 0 .464-.015l8.938-1.278a2.161 2.161 0 0 0 1.82-2.446zm-9.6-5.95l2.674-.383a.27.27 0 0 1 .079 0 .266.266 0 0 1 .22.225l.119.84-3.2.457-.119-.84a.265.265 0 0 1 .228-.299z" transform="translate(-1730.012 -1235.837)"/>
                <path id="Path_3565" d="M1808.536 1244.837l.4.689a1.6 1.6 0 0 0 1.072 2.28s.8.2.865-.353-.05-.336.066-1.12a1.432 1.432 0 0 0-.764-1.666l-.454-.436z" class="cls-9" transform="translate(-1778.941 -1212.101)"/>
                <path id="Path_3566" d="M1719.514 1046.143a6.862 6.862 0 0 1-1.575.088s-2.244-6.959-2.533-7.595-6.667-8.16-6.667-8.16l2.657-6.673s6.9 11.565 7.6 13.19c1.157 2.686 1.559 8.706 1.559 8.706a2.888 2.888 0 0 1-1.041.444z" class="cls-8" transform="translate(-1688.863 -1013.219)"/>
                <path id="Path_3567" fill="#0d0d0d" d="M1670.047 921.922s-.413-.069-.346-.64.066-1.316-.4-1.177-.485.51-.675.293-.193-1.131-1.568-1.194-1.934.417-2.574.135-.673-1.254-.673-1.254a1.1 1.1 0 0 0 .456.457s-1.067-1.464.168-2.469 2.495-.347 3.21-.3c1.575.1 2.592.19 3.107 1.229s.306 3.92-.705 4.92z" transform="translate(-1648.314 -915.519)"/>
                <g id="Group_4919" transform="translate(0 10.584)">
                    <path id="Path_3568" d="M1521.315 1058.879l-2.738-5.574a.218.218 0 0 0-.292-.1l-1.523.754a.22.22 0 0 0-.1.293l2.737 5.574a.219.219 0 0 0 .292.1l1.524-.754a.22.22 0 0 0 .1-.293z" class="cls-16" transform="translate(-1515.905 -1053.183)"/>
                    <path id="Path_3569" fill="#5098ec" d="M1516.119 1063.2l-2.783-5.668a.166.166 0 0 0-.222-.076l-.893.442a.167.167 0 0 0-.076.223l2.783 5.667a.166.166 0 0 0 .222.076l.893-.442a.167.167 0 0 0 .076-.222z" transform="translate(-1512.127 -1056.74)"/>
                </g>
            </g>
            <g id="Shuttle" transform="translate(0 49.014)">
                <g id="Group_4309" transform="translate(40.749 62.105)">
                    <path id="Rectangle_2478" d="M2.813 0H59.4a2.813 2.813 0 0 1 2.813 2.813A2.813 2.813 0 0 1 59.4 5.626H2.813A2.813 2.813 0 0 1 0 2.813 2.813 2.813 0 0 1 2.813 0z" transform="translate(1.774)"/>
                    <path id="Path_3130" fill="#515155" d="M476.084 570.769a1.316 1.316 0 0 0 1.451 1.114H540.5a1.316 1.316 0 0 0 1.451-1.114 1.317 1.317 0 0 0-1.451-1.114h-62.965a1.317 1.317 0 0 0-1.451 1.114z" transform="translate(-476.084 -565.581)"/>
                    <path id="Path_3131" fill="#c4c4c4" d="M476.343 570.322a1.514 1.514 0 0 1 1.328-.667h62.961a1.515 1.515 0 0 1 1.328.667z" opacity="0.4" transform="translate(-476.22 -565.581)"/>
                </g>
                <path id="Path_3132" d="M394.636 509.1l107.532-2.116s18.349 2.806 34.749 10.9a4.722 4.722 0 0 1 1.675 3.4c.067.416.12.836.174 1.256.45 2.041 1.437 6.552-.416 8.547-2.719 2.925-.96 1.139-4.311 5.046-.1.123-.284.119-.428.174l-126.737-.336-11.084-3.551-1.772-5.316v-4.644z" class="cls-16" transform="translate(-393.876 -470.546)"/>
                <g id="Group_4310" class="cls-20" transform="translate(.141 46.979)">
                    <path id="Path_3133" d="M536.193 529.2c.241.117.483.234.724.353a4.723 4.723 0 0 1 1.675 3.4c.067.415.12.835.174 1.256.45 2.042 1.437 6.552-.416 8.547-2.719 2.925-.96 1.139-4.311 5.046-.1.123-.284.119-.428.174l-126.737-.337-11.084-3.551-1.772-5.316v-4.637l.228-4.937z" class="cls-16" transform="translate(-394.018 -529.198)"/>
                </g>
                <g id="Group_4311" class="cls-20" transform="translate(.186 56.687)">
                    <path id="Path_3134" d="M539.389 549.655a5.541 5.541 0 0 1-1.082 3.85c-2.719 2.925-.96 1.139-4.311 5.046-.1.123-.284.119-.428.174l-126.737-.337-11.084-3.551-1.728-5.182z" class="cls-16" transform="translate(-394.019 -549.655)"/>
                </g>
                <path id="Path_3135" d="M399.379 437.164c.219-.53 1.548-4.882 8.208-5.406 25.022-1.967 80.222-2.212 100.713.1 3.609.408 14.536 11.565 14.572 11.609a83.39 83.39 0 0 1 17.462 35.963L396.8 470.784s1.2-30.284 2.579-33.62z" class="cls-16" transform="translate(-396.099 -430.203)"/>
                <g id="Group_4312" transform="translate(4.971)" style="mix-blend-mode:screen;isolation:isolate" opacity="0.5">
                    <path id="Path_3136" d="M454.561 434.456a9.808 9.808 0 0 1 6.518-2.7c25.022-1.967 80.222-2.212 100.713.1 1.062.119 2.759 1.172 4.625 2.6z" class="cls-16" transform="translate(-454.561 -430.203)"/>
                </g>
                <path id="Path_3137" fill="#00384b" d="M422.758 477.021a8.04 8.04 0 0 1-2.482-3.064c-.773-1.5-1.432-3.045-2.225-4.534q-1.31-2.457-2.759-4.836a89.483 89.483 0 0 0-5.7-8.212c-1.025-1.33-2.067-2.651-3.157-3.928-.532-.622-1.171-1.149-1.734-1.743-.616-.65-1.6-1.629-1.543-2.612a1.111 1.111 0 0 1 1.027-1.06c3 2.706 5.5 5.258 5.513 5.279a86.075 86.075 0 0 1 14.446 25.31 4.087 4.087 0 0 1-1.386-.6z" transform="translate(-282.929 -439.045)"/>
                <g id="Group_4317" transform="translate(103.589 43.768)">
                    <g id="Group_4314">
                        <path id="Path_3138" d="M445.574 539.339c0-6.744-5.751-12.212-12.845-12.212s-12.844 5.468-12.844 12.212a11.669 11.669 0 0 0 1.162 5.081H418.7a15.469 15.469 0 1 1 28.061 0h-2.349a11.662 11.662 0 0 0 1.162-5.081z" class="cls-23" transform="translate(-417.261 -522.432)"/>
                        <g id="Group_4313">
                            <path id="Path_3139" d="M417.261 537.9a15.469 15.469 0 1 1 29.5 6.52h-.361a14.867 14.867 0 1 0-27.344 0h-.356a15.411 15.411 0 0 1-1.439-6.52z" class="cls-24" transform="translate(-417.261 -522.432)"/>
                        </g>
                        <path id="Path_3140" d="M435.636 532.327c7.094 0 12.845 5.467 12.845 12.211a11.665 11.665 0 0 1-1.162 5.082h-23.365a11.672 11.672 0 0 1-1.162-5.082c0-6.744 5.751-12.211 12.844-12.211z" transform="translate(-420.168 -527.631)"/>
                    </g>
                    <g id="Group_4316" transform="translate(4.547 7.274)">
                        <path id="Path_3141" d="M426.843 548.681a10.922 10.922 0 1 0 10.922-10.922 10.922 10.922 0 0 0-10.922 10.922z" class="cls-25" transform="translate(-426.843 -537.76)"/>
                        <path id="Path_3142" d="M426.843 548.681a10.922 10.922 0 1 0 10.922-10.922 10.922 10.922 0 0 0-10.922 10.922z" class="cls-11" transform="translate(-426.843 -537.76)"/>
                        <path id="Path_3143" d="M434.243 552.569a7.41 7.41 0 1 0 7.411-7.41 7.411 7.411 0 0 0-7.411 7.41z" transform="translate(-430.732 -541.648)"/>
                        <path id="Path_3144" d="M435.6 553.283a6.765 6.765 0 1 0 6.765-6.765 6.765 6.765 0 0 0-6.765 6.765z" class="cls-26" transform="translate(-431.445 -542.362)"/>
                        <g id="Group_4315" transform="translate(5.406 5.511)">
                            <path id="Path_3145" d="M450.577 550.752a.439.439 0 0 1 .029-.234 4.5 4.5 0 0 1 2.673-1.146.609.609 0 0 1 .26.123 1 1 0 0 1 .09.164v3.762a.808.808 0 0 1-.075.142l-.065.033a.817.817 0 0 1-.18-.038l-2.7-2.7a.886.886 0 0 1-.032-.106z" class="cls-27" transform="translate(-448.454 -549.372)"/>
                            <path id="Path_3146" d="M452.694 556.807a.441.441 0 0 1-.145-.187 4.5 4.5 0 0 1 1.08-2.7.63.63 0 0 1 .271-.1 1.024 1.024 0 0 1 .179.052l2.66 2.66a.95.95 0 0 1 .048.153l-.023.07a.787.787 0 0 1-.154.1h-3.818a.812.812 0 0 1-.098-.048z" class="cls-27" transform="translate(-452.549 -551.71)"/>
                            <path id="Path_3147" d="M454 564.913a.453.453 0 0 1-.236-.025 4.5 4.5 0 0 1-1.192-2.654.614.614 0 0 1 .118-.261.975.975 0 0 1 .162-.093l3.761-.065a.858.858 0 0 1 .144.072l.035.065a.783.783 0 0 1-.036.179l-2.652 2.747a.953.953 0 0 1-.104.035z" class="cls-27" transform="translate(-452.56 -555.91)"/>
                            <path id="Path_3148" d="M453.5 567.342a.456.456 0 0 1-.189.143 4.5 4.5 0 0 1-2.685-1.12.612.612 0 0 1-.094-.271 1.061 1.061 0 0 1 .055-.179l2.7-2.622a.854.854 0 0 1 .154-.046.5.5 0 0 1 .07.024.738.738 0 0 1 .1.155l-.054 3.818a.928.928 0 0 1-.057.098z" class="cls-27" transform="translate(-448.419 -556.662)"/>
                            <path id="Path_3149" d="M445.753 550.752a.445.445 0 0 0-.029-.234 4.5 4.5 0 0 0-2.674-1.146.61.61 0 0 0-.26.123 1 1 0 0 0-.091.164v3.762a.838.838 0 0 0 .075.142q.032.018.065.033a.827.827 0 0 0 .18-.038l2.7-2.7a.73.73 0 0 0 .034-.106z" class="cls-27" transform="translate(-436.845 -549.372)"/>
                            <path id="Path_3150" d="M442.327 556.807a.449.449 0 0 0 .146-.187 4.505 4.505 0 0 0-1.082-2.7.62.62 0 0 0-.27-.1 1.037 1.037 0 0 0-.179.052l-2.66 2.66a.906.906 0 0 0-.048.153l.023.07a.8.8 0 0 0 .154.1h3.818a.8.8 0 0 0 .098-.048z" class="cls-27" transform="translate(-431.44 -551.71)"/>
                            <path id="Path_3151" d="M441.047 564.913a.45.45 0 0 0 .235-.025 4.5 4.5 0 0 0 1.192-2.654.621.621 0 0 0-.118-.261.985.985 0 0 0-.162-.093l-3.761-.065a.877.877 0 0 0-.144.072l-.034.065a.779.779 0 0 0 .035.179l2.652 2.747a.96.96 0 0 0 .105.035z" class="cls-27" transform="translate(-431.451 -555.91)"/>
                            <path id="Path_3152" d="M442.806 567.342a.453.453 0 0 0 .189.143 4.5 4.5 0 0 0 2.685-1.12.631.631 0 0 0 .094-.271 1.193 1.193 0 0 0-.055-.179l-2.7-2.622a.842.842 0 0 0-.154-.046.568.568 0 0 0-.069.024.749.749 0 0 0-.1.155l.054 3.818a.814.814 0 0 0 .056.098z" class="cls-27" transform="translate(-436.86 -556.662)"/>
                        </g>
                        <path id="Path_3155" d="M445.67 558.574a1.987 1.987 0 1 0 1.987-1.987 1.987 1.987 0 0 0-1.987 1.987z" class="cls-26" transform="translate(-436.735 -547.652)"/>
                        <path id="Path_3156" d="M451.527 558.441a.247.247 0 1 0 .247-.248.247.247 0 0 0-.247.248z" class="cls-27" transform="translate(-441.891 -548.496)"/>
                        <path id="Path_3157" d="M449.356 557.7a.247.247 0 1 0 .248-.247.248.248 0 0 0-.248.247z" class="cls-27" transform="translate(-438.691 -548.105)"/>
                        <path id="Path_3158" d="M447.146 558.52a.248.248 0 1 0 .248-.247.247.247 0 0 0-.248.247z" class="cls-27" transform="translate(-435.432 -548.538)"/>
                        <path id="Path_3159" d="M451.527 563a.247.247 0 1 1 .247.247.247.247 0 0 1-.247-.247z" class="cls-27" transform="translate(-441.891 -550.891)"/>
                        <path id="Path_3160" d="M452.549 560.822a.247.247 0 1 1 .247.247.247.247 0 0 1-.247-.247z" class="cls-27" transform="translate(-443.399 -549.748)"/>
                        <path id="Path_3161" d="M446.124 560.822a.247.247 0 1 1 .247.247.247.247 0 0 1-.247-.247z" class="cls-27" transform="translate(-433.925 -549.748)"/>
                        <path id="Path_3162" d="M449.356 563.743a.247.247 0 1 1 .248.248.247.247 0 0 1-.248-.248z" class="cls-27" transform="translate(-438.691 -551.282)"/>
                        <path id="Path_3163" d="M447.146 562.919a.248.248 0 1 1 .248.247.247.247 0 0 1-.248-.247z" class="cls-27" transform="translate(-435.432 -550.85)"/>
                    </g>
                </g>
                <g id="Group_4318" transform="translate(132.15 57.816)">
                    <path id="Path_3164" d="M391.153 554.317c-.059-.762-.124-1.521-.172-2.282h13.985a1.261 1.261 0 0 1 .435.111.934.934 0 0 1 .429.483l-.058 3.046s-2.89 4.337-4.879 4.974a8.231 8.231 0 0 1-3.31.455l-5.77.023c-.013-.348-.581-5.799-.66-6.81z" class="cls-23" transform="translate(-390.981 -552.035)"/>
                    <path id="Path_3165" fill="#222" d="M390.981 552.035h10.666a1.261 1.261 0 0 1 .435.111.933.933 0 0 1 .429.483l-.052 2.692s-11.43-2.521-11.478-3.286z" transform="translate(-387.662 -552.035)" style="mix-blend-mode:screen;isolation:isolate" opacity="0.6"/>
                </g>
                <g id="Group_4321" transform="translate(134.628 45.469)">
                    <g id="Group_4319">
                        <path id="Path_3166" d="M396.258 526.06a8.585 8.585 0 0 1 4.356.551c1.353.633 3.349 1.409 4.04 2.128a5.021 5.021 0 0 1 .608 1.036 13.906 13.906 0 0 1 .546 3.426 2.876 2.876 0 0 1-.238.9c-.418.854-4.986.179-8.052-2.324-.979-.571-2.818-5.616-1.26-5.717z" class="cls-26" transform="translate(-395.654 -526.016)"/>
                    </g>
                    <path id="Path_3167" fill="#e3edee" d="M405.463 530.806c.22 1.553 1.188 2.7 2.163 2.561s1.587-1.508 1.368-3.06-1.187-2.7-2.163-2.561-1.587 1.508-1.368 3.06z" opacity="0.6" transform="translate(-403.519 -526.92)"/>
                    <path id="Path_3168" fill="#e3d8c3" d="M398.554 536.3c.033.947.541 1.7 1.136 1.677s1.05-.8 1.017-1.752-.541-1.7-1.136-1.677-1.05.802-1.017 1.752z" transform="translate(-391.932 -530.497)"/>
                    <g id="Group_4320" transform="translate(.885)" style="mix-blend-mode:screen;isolation:isolate" opacity="0.4">
                        <path id="Path_3169" fill="#fff" d="M395.654 526.046a8.135 8.135 0 0 1 4.075.565c1.353.633 3.349 1.409 4.04 2.128a5.034 5.034 0 0 1 .607 1.036 13.889 13.889 0 0 1 .546 3.426 3.256 3.256 0 0 1-.159.712c-2.129-3.547-5.17-6.598-9.109-7.867z" transform="translate(-395.654 -526.017)"/>
                    </g>
                </g>
                <g id="Group_4322" transform="translate(135.59 61.062)">
                    <path id="Path_3170" d="M402.1 558.882a2.08 2.08 0 0 0-2.376 2.229 3.014 3.014 0 0 0 2.74 2.633c1.412.112 4.615-.717 4.514-2.06s-3.467-2.691-4.878-2.802z" transform="translate(-399.716 -558.874)" style="mix-blend-mode:screen;isolation:isolate" fill="#222"/>
                    <path id="Path_3171" d="M401.941 559.508a1.962 1.962 0 0 0-2.241 2.1 2.845 2.845 0 0 0 2.584 2.484c1.332.105 4.353-.677 4.258-1.944s-3.268-2.535-4.601-2.64z" transform="translate(-399.272 -559.203)"/>
                </g>
                <g id="Group_4328" transform="translate(12.441 43.768)">
                    <g id="Group_4326">
                        <g id="Group_4323">
                            <path id="Path_3172" d="M637.645 539.339c0-6.744-5.751-12.212-12.844-12.212s-12.844 5.468-12.844 12.212a11.663 11.663 0 0 0 1.162 5.081h-2.349a15.469 15.469 0 1 1 28.061 0h-2.348a11.667 11.667 0 0 0 1.162-5.081z" class="cls-23" transform="translate(-609.332 -522.432)"/>
                            <path id="Path_3173" d="M627.707 532.327c7.093 0 12.844 5.467 12.844 12.211a11.671 11.671 0 0 1-1.162 5.082h-23.364a11.665 11.665 0 0 1-1.162-5.082c0-6.744 5.75-12.211 12.844-12.211z" transform="translate(-612.238 -527.631)"/>
                        </g>
                        <g id="Group_4325" transform="translate(4.548 7.274)">
                            <path id="Path_3174" d="M618.913 548.681a10.922 10.922 0 1 0 10.921-10.922 10.921 10.921 0 0 0-10.921 10.922z" class="cls-25" transform="translate(-618.913 -537.76)"/>
                            <path id="Path_3175" d="M618.913 548.681a10.922 10.922 0 1 0 10.921-10.922 10.921 10.921 0 0 0-10.921 10.922z" class="cls-11" transform="translate(-618.913 -537.76)"/>
                            <path id="Path_3176" d="M626.313 552.569a7.411 7.411 0 1 0 7.411-7.41 7.411 7.411 0 0 0-7.411 7.41z" transform="translate(-622.803 -541.648)"/>
                            <path id="Path_3177" d="M627.672 553.283a6.766 6.766 0 1 0 6.766-6.765 6.765 6.765 0 0 0-6.766 6.765z" class="cls-26" transform="translate(-623.517 -542.362)"/>
                            <g id="Group_4324" transform="translate(5.404 5.511)">
                                <path id="Path_3178" d="M642.648 550.752a.447.447 0 0 1 .029-.234 4.5 4.5 0 0 1 2.674-1.146.613.613 0 0 1 .26.123 1.043 1.043 0 0 1 .09.164v3.762a.781.781 0 0 1-.075.142c-.021.012-.044.023-.066.033a.821.821 0 0 1-.179-.038l-2.7-2.7a.873.873 0 0 1-.033-.106z" class="cls-27" transform="translate(-640.524 -549.372)"/>
                                <path id="Path_3179" d="M644.765 556.807a.45.45 0 0 1-.146-.187 4.505 4.505 0 0 1 1.082-2.7.62.62 0 0 1 .269-.1 1.014 1.014 0 0 1 .18.052l2.66 2.66a1.01 1.01 0 0 1 .048.153l-.023.07a.823.823 0 0 1-.154.1h-3.818a.763.763 0 0 1-.098-.048z" class="cls-27" transform="translate(-644.619 -551.71)"/>
                                <path id="Path_3180" d="M646.067 564.913a.452.452 0 0 1-.235-.025 4.5 4.5 0 0 1-1.191-2.654.617.617 0 0 1 .118-.261.958.958 0 0 1 .162-.093l3.761-.065a.883.883 0 0 1 .144.072c.012.022.024.043.034.065a.792.792 0 0 1-.034.179l-2.653 2.747a.971.971 0 0 1-.106.035z" class="cls-27" transform="translate(-644.63 -555.91)"/>
                                <path id="Path_3181" d="M645.574 567.342a.449.449 0 0 1-.188.143 4.5 4.5 0 0 1-2.685-1.12.624.624 0 0 1-.093-.271 1.052 1.052 0 0 1 .054-.179l2.7-2.622a.834.834 0 0 1 .154-.046.546.546 0 0 1 .07.024.753.753 0 0 1 .1.155l-.055 3.818a.841.841 0 0 1-.057.098z" class="cls-27" transform="translate(-640.487 -556.662)"/>
                                <path id="Path_3182" d="M637.823 550.752a.442.442 0 0 0-.029-.234 4.5 4.5 0 0 0-2.674-1.146.61.61 0 0 0-.26.123 1.045 1.045 0 0 0-.09.164v3.762a.849.849 0 0 0 .074.142l.066.033a.837.837 0 0 0 .18-.038l2.7-2.7a.8.8 0 0 0 .033-.106z" class="cls-27" transform="translate(-628.914 -549.372)"/>
                                <path id="Path_3183" d="M634.4 556.807a.448.448 0 0 0 .146-.187 4.5 4.5 0 0 0-1.081-2.7.626.626 0 0 0-.271-.1 1 1 0 0 0-.179.052l-2.661 2.66a.883.883 0 0 0-.048.153.691.691 0 0 0 .023.07.816.816 0 0 0 .154.1h3.817a.84.84 0 0 0 .1-.048z" class="cls-27" transform="translate(-623.51 -551.71)"/>
                                <path id="Path_3184" d="M633.118 564.913a.451.451 0 0 0 .235-.025 4.5 4.5 0 0 0 1.192-2.654.6.6 0 0 0-.118-.261.977.977 0 0 0-.162-.093l-3.761-.065a.876.876 0 0 0-.144.072l-.034.065a.787.787 0 0 0 .035.179l2.652 2.747a1.041 1.041 0 0 0 .105.035z" class="cls-27" transform="translate(-623.522 -555.91)"/>
                                <path id="Path_3185" d="M634.878 567.342a.452.452 0 0 0 .189.143 4.5 4.5 0 0 0 2.685-1.12.613.613 0 0 0 .094-.271 1.035 1.035 0 0 0-.055-.179l-2.7-2.622a.846.846 0 0 0-.155-.046.519.519 0 0 0-.069.024.692.692 0 0 0-.1.155l.054 3.818a.91.91 0 0 0 .057.098z" class="cls-27" transform="translate(-628.932 -556.662)"/>
                            </g>
                            <path id="Path_3188" d="M637.741 558.574a1.987 1.987 0 1 0 1.987-1.987 1.987 1.987 0 0 0-1.987 1.987z" class="cls-26" transform="translate(-628.807 -547.652)"/>
                            <path id="Path_3189" d="M643.6 558.441a.247.247 0 1 0 .247-.248.247.247 0 0 0-.247.248z" class="cls-27" transform="translate(-633.964 -548.496)"/>
                            <path id="Path_3190" d="M641.427 557.7a.247.247 0 1 0 .248-.247.248.248 0 0 0-.248.247z" class="cls-27" transform="translate(-630.763 -548.105)"/>
                            <path id="Path_3191" d="M639.217 558.52a.247.247 0 1 0 .247-.247.247.247 0 0 0-.247.247z" class="cls-27" transform="translate(-627.504 -548.538)"/>
                            <path id="Path_3192" d="M643.6 563a.247.247 0 1 1 .247.247.247.247 0 0 1-.247-.247z" class="cls-27" transform="translate(-633.964 -550.891)"/>
                            <circle id="Ellipse_249" cx=".247" cy=".247" r=".247" class="cls-27" transform="translate(9.149 10.827)"/>
                            <circle id="Ellipse_250" cx=".247" cy=".247" r=".247" class="cls-27" transform="translate(12.198 10.827)"/>
                            <path id="Path_3193" d="M641.427 563.743a.247.247 0 1 1 .248.248.247.247 0 0 1-.248-.248z" class="cls-27" transform="translate(-630.763 -551.282)"/>
                            <path id="Path_3194" d="M639.217 562.919a.247.247 0 1 1 .247.247.247.247 0 0 1-.247-.247z" class="cls-27" transform="translate(-627.504 -550.85)"/>
                        </g>
                    </g>
                    <g id="Group_4327">
                        <path id="Path_3195" d="M609.332 537.9a15.469 15.469 0 1 1 29.5 6.52h-.358a14.867 14.867 0 1 0-27.344 0h-.359a15.417 15.417 0 0 1-1.439-6.52z" class="cls-24" transform="translate(-609.332 -522.432)"/>
                    </g>
                </g>
                <g id="Group_4329" transform="translate(0 50.99)">
                    <path id="Path_3196" d="M698.285 537.663l-1.325.155s-.366.034-.383.521l-.009 1.857s.028.289.242.238l1.276-.3a.4.4 0 0 0 .3-.288 16.247 16.247 0 0 0 .156-1.918s0-.342-.257-.265z" class="cls-34" transform="translate(-696.568 -537.651)"/>
                    <path id="Path_3197" fill="#e3301f" d="M699.017 538.676l-.9.106s-.249.023-.261.355l-.006 1.264s.019.2.165.162l.868-.208a.275.275 0 0 0 .208-.2 11.164 11.164 0 0 0 .105-1.306s-.03-.261-.179-.173z" transform="translate(-697.823 -538.181)"/>
                </g>
                <g id="Group_4330" fill="#e86408" transform="translate(128.791 45.669)">
                    <path id="Path_3198" d="M423.833 526.641l-4.5-.2a1.649 1.649 0 0 0 .53.906c.463.418 2.663.313 2.663.313s.99.052 1.3-.261.374-.742.007-.758z" transform="translate(-419.337 -526.438)"/>
                    <path id="Path_3199" d="M422.7 527.115l-2.989-.136a1.1 1.1 0 0 0 .352.6c.307.278 1.771.209 1.771.209s.659.035.867-.174.24-.488-.001-.499z" transform="translate(-418.294 -526.722)" style="mix-blend-mode:screen;isolation:isolate" opacity="0.5"/>
                </g>
                <g id="Group_4331" transform="translate(99.855 7.017)">
                    <path id="Path_3200" d="M421.937 445.012c3.457.261 6.831.387 10.113 1.646 5.731 2.2 18.914 21.815 20.62 28.251.034.3.049.724-.214.933a2 2 0 0 1-.791.218H435.11s-9.79.445-11.352-5.131c-1.372-4.9-3.669-16.441-4.856-21.38-.032-.387-.121-.766-.177-1.15-.168-2.36.454-3.594 3.212-3.387z" class="cls-38" transform="translate(-418.699 -444.99)"/>
                    <path id="Path_3201" d="M422.964 446.348c3.316.25 6.551.371 9.7 1.578 5.761 2.21 19.378 22.779 19.936 27.9a1.387 1.387 0 0 1-.12.193.744.744 0 0 1-.2.109H435.6s-9.391.426-10.889-4.922c-1.315-4.7-3.519-15.771-4.657-20.508-.031-.371-.117-.735-.17-1.1-.163-2.265.434-3.449 3.08-3.25z" class="cls-39" transform="translate(-419.161 -445.692)"/>
                </g>
                <path id="Path_3202" d="M492.766 471.922c0 2.128 2.615 3.735 6.763 3.735h79.865c.764 0 8.269.052 7.96-3.494l-1.048-23.526a4.417 4.417 0 0 0-4.783-4.329H499.53c-.764 0-3.381-.1-4.5 2.286z" class="cls-38" transform="translate(-488.668 -437.614)"/>
                <path id="Path_3203" d="M494.772 447.43a1.468 1.468 0 0 1 .9-1.1h27.435a4.288 4.288 0 0 1 4.689 4.052l1.029 22.018c.3 3.32-7.056 3.271-7.805 3.271h-24.967a2.038 2.038 0 0 1-.456-.193 1.066 1.066 0 0 1-.511-.729c-.037-1.695-.233-22.672-.314-27.319z" class="cls-39" transform="translate(-431.088 -438.675)"/>
                <path id="Path_3204" d="M635.464 448.465c1.065-2.235 3.564-2.14 4.293-2.14h19.408c.421.1 1.185.375 1.148 1.032-.07 1.223-1.028 18.54-1.587 27.056a1.909 1.909 0 0 1-.463.674 2.807 2.807 0 0 1-1.352.579h-17.154c-3.96 0-6.458-1.5-6.458-3.5z" class="cls-39" transform="translate(-628.31 -438.674)"/>
                <path id="Path_3205" d="M569.272 475.346a1.576 1.576 0 0 1-.525-.9c.242-4.388 1.262-25.641 1.328-27.184a1.205 1.205 0 0 1 .16-.343 1.708 1.708 0 0 1 1.331-.593h26.3a1.434 1.434 0 0 1 .7.324 1.925 1.925 0 0 1 .513.839c-.161 9.058.349 18.121.3 27.181a1.406 1.406 0 0 1-.261.564 1.3 1.3 0 0 1-.766.433h-28.5a1.831 1.831 0 0 1-.58-.321z" class="cls-39" transform="translate(-536.744 -438.675)"/>
                <path id="Path_3206" fill="#68aef1" d="M424.2 468.519q-1.09-1.991-2.268-3.932a89.507 89.507 0 0 0-5.7-8.212c-1.025-1.33-2.067-2.651-3.157-3.928-.531-.622-1.171-1.149-1.734-1.743-.616-.65-1.6-1.629-1.543-2.612a1.111 1.111 0 0 1 1.026-1.06c3 2.706 5.5 5.258 5.513 5.279a84.859 84.859 0 0 1 11.294 17.784q-1.702-.81-3.431-1.576z" transform="translate(-289.57 -439.045)" style="mix-blend-mode:screen;isolation:isolate" opacity="0.5"/>
                <path id="Path_3207" d="M406.569 494.515c1.222 2.6 2.215 5.043 3.014 7.235a4.089 4.089 0 0 1-1.389-.6 8.042 8.042 0 0 1-2.482-3.064c-.773-1.5-1.432-3.045-2.225-4.534-.107-.2-.217-.4-.326-.6q1.714.76 3.408 1.563z" class="cls-39" transform="translate(-268.363 -463.174)"/>
                <path id="Path_3208" d="M443.947 460.8c-3.973-1.143-7.978-2.14-12.006-3.016-.6-2.795-1.159-5.363-1.574-7.089-.031-.371-.117-.735-.17-1.1-.161-2.263.436-3.446 3.082-3.247 3.315.25 6.551.371 9.7 1.578 3.637 1.4 10.4 10.108 15.041 17.63q-6.92-2.701-14.073-4.756z" class="cls-41" transform="translate(-329.621 -438.675)"/>
                <path id="Path_3209" d="M496.4 452.488c-.026-2.224-.049-4.035-.067-5.058a1.469 1.469 0 0 1 .9-1.1h27.437a4.288 4.288 0 0 1 4.689 4.052l.3 6.323a300.814 300.814 0 0 0-33.259-4.217z" class="cls-41" transform="translate(-432.652 -438.675)"/>
                <path id="Path_3210" d="M644.106 450.378c-3.605-.1-7.2-.152-10.807-.17l.159-1.742c1.065-2.235 3.564-2.14 4.293-2.14h19.408c.421.1 1.185.375 1.148 1.032-.018.3-.089 1.579-.194 3.459q-7.003-.244-14.007-.439z" class="cls-41" transform="translate(-626.304 -438.674)"/>
                <path id="Path_3211" d="M598.533 452.379q-5.114-.378-10.228-.663c-6.3-.358-12.606-.626-18.913-.851.092-1.917.154-3.257.17-3.6a1.209 1.209 0 0 1 .16-.343 1.707 1.707 0 0 1 1.331-.593h26.3a1.433 1.433 0 0 1 .7.324 1.918 1.918 0 0 1 .513.839c-.034 1.627-.04 3.257-.033 4.887z" class="cls-41" transform="translate(-536.229 -438.675)"/>
                <g id="Group_4334" transform="translate(124.479 29.95)">
                    <path id="Path_3212" d="M416.227 503.616l3.41 1.624s1.553.782.421 1.624a3.314 3.314 0 0 1-1.963.465 6.586 6.586 0 0 1-2.843-.756z" transform="translate(-409.47 -498.728)"/>
                    <g id="Group_4332">
                        <path id="Path_3213" d="M421.021 494.98c.69-1.92 4.194-1.651 4.2-1.651 1.5.111 2.635 1.629 3.486 3.242.982 1.86.251 5.662-1.593 5.308a26.618 26.618 0 0 1-4.73-1.109c-.894-.261-2.203-3.453-1.363-5.79z" class="cls-11" transform="translate(-420.751 -493.316)"/>
                    </g>
                    <g id="Group_4333" transform="translate(0 1.19)">
                        <path id="Path_3214" fill="#141412" d="M421.035 496.3a1.791 1.791 0 0 1 .256-.474 3.439 3.439 0 0 0 .784 2.495 6.128 6.128 0 0 0 3.017 1.634c.663.184 1.316.417 1.992.552a2.594 2.594 0 0 0 1.776-.058 1.387 1.387 0 0 0 .29-.238c-.072 1.637-.8 3.222-2.024 2.988a26.614 26.614 0 0 1-4.73-1.109c-.896-.264-2.196-3.455-1.361-5.79z" transform="translate(-420.765 -495.823)"/>
                    </g>
                </g>
                <g id="Group_4335" transform="translate(6.516 38.971)" style="mix-blend-mode:screen;isolation:isolate">
                    <path id="Path_3215" d="M486.883 512.324h94.971s-50.535 5.29-94.971 0z" class="cls-16" transform="translate(-486.883 -512.324)"/>
                </g>
                <g id="Group_4339" transform="translate(.234 36.387)">
                    <path id="Path_3216" d="M695.177 508.395a3.788 3.788 0 0 1 .913 1.592 7.327 7.327 0 0 1 .216 2.26c-.021.651-.073 1.3-.116 1.948s-.091 1.315-.15 1.968c-.055.593-.112 1.192-.212 1.763a2.867 2.867 0 0 1-.311 1.013 3.089 3.089 0 0 1-.729.72c-.32.261-.646.5-.974.728-.3.207-1.045.918-1.052.6l.726-13.762.206-.342.07.06a5.963 5.963 0 0 1 .482.458c.311.321.615.678.931.994z" class="cls-34" transform="translate(-692.761 -506.879)"/>
                    <g id="Group_4338" transform="translate(0 .003)">
                        <g id="Group_4337">
                            <path id="Path_3217" d="M695.706 508.4a3.94 3.94 0 0 1 .823 1.593 8.13 8.13 0 0 1 .2 2.26c-.017.651-.063 1.3-.1 1.948s-.078 1.315-.131 1.968c-.048.593-.1 1.192-.187 1.762a3.094 3.094 0 0 1-.278 1.013 2.911 2.911 0 0 1-.652.718c-.288.261-.58.5-.875.727-.269.206-.936.915-.944.592l.623-13.76.184-.34.063.06a6.144 6.144 0 0 1 .433.46c.283.329.557.687.841.999z" class="cls-44" transform="translate(-693.562 -506.885)"/>
                            <g id="Group_4336" transform="translate(0 6.618)" style="isolation:isolate;mix-blend-mode:multiply">
                                <path id="Path_3218" d="M696.8 520.83l-.042.7c-.038.658-.078 1.315-.131 1.968-.048.593-.1 1.192-.187 1.762a3.088 3.088 0 0 1-.278 1.013 2.914 2.914 0 0 1-.652.718c-.288.26-.58.5-.874.727-.269.206-.937.916-.944.592l.336-7.425z" class="cls-44" transform="translate(-693.697 -520.83)"/>
                            </g>
                        </g>
                        <path id="Path_3219" d="M694.1 507.693s1.982 1.784 2.057 3.6-.458 7.294-.458 7.294a1.283 1.283 0 0 1-.364.81l.472-6.259s.229-2.26-.457-3.292a23.752 23.752 0 0 1-1.25-2.153z" transform="translate(-693.254 -507.309)" style="mix-blend-mode:screen;isolation:isolate" fill="#fff"/>
                    </g>
                </g>
                <g id="Group_4340" transform="translate(105.636 39.674)">
                    <path id="Path_3220" d="M467.536 513.832l-2.837.028s-.559.025-.329.617a6.307 6.307 0 0 0 .293.7s.068.309.618.407 3.837.239 3.837.239a1.978 1.978 0 0 0 1.173-.4c.71-.457.667-1.224.422-1.4 0 0 0-.083-.466-.168s-2.711-.023-2.711-.023z" class="cls-47" transform="translate(-464.315 -513.806)"/>
                    <path id="Path_3221" d="M470.378 514.135h-4.775s-.53 0-.6.3.207.561.935.61 3.507.162 3.507.162 1.041.055 1.379-.306.156-.736-.446-.766z" class="cls-48" transform="translate(-464.748 -513.979)"/>
                </g>
                <g id="Group_4341" transform="translate(95.769 40.369)">
                    <path id="Path_3222" d="M496.671 517.8l-.028-2.226s-.026-.438-.617-.259-.7.23-.7.23a.574.574 0 0 0-.407.485c-.1.431-.239 3.01-.239 3.01a1.325 1.325 0 0 0 .4.921 1.123 1.123 0 0 0 1.4.331s.083 0 .168-.365a18.018 18.018 0 0 0 .023-2.127z" class="cls-47" transform="translate(-494.68 -515.269)"/>
                    <path id="Path_3223" d="M496.086 519.894v-3.746s0-.416-.3-.474-.561.163-.61.734-.163 2.751-.163 2.751-.054.816.307 1.083.736.124.766-.348z" class="cls-48" transform="translate(-494.224 -515.477)"/>
                </g>
            </g>
        </g>
    </g>
</svg>
